# xmcd
#
# Track frame offsets: 
#        150
#        23227
#        40132
#
# Disc length: 860 seconds
#
# Revision: 9
# Processed by: cddbd v1.5.2PL0 Copyright (c) Steve Scherf et al.
# Submitted via: ExactAudioCopy v1.0b3
#
DISCID=1b035a03
DTITLE=The Cranberries / Zombie
DYEAR=1994
DGENRE=Rock
TTITLE0=Zombie
TTITLE1=Waltzing Back (Live)
TTITLE2=Linger (Live)
EXTD=
EXTT0=
EXTT1=
EXTT2=
PLAYORDER=
